<?xml version="1.0" encoding="UTF-8"?>
<svg id="Capa_2" data-name="Capa 2" xmlns="http://www.w3.org/2000/svg" viewBox="0 0 341.23 408.8">
  <defs>
    <style>
      .cls-1 {
        fill: #fff;
      }
    </style>
  </defs>
  <g id="Capa_1-2" data-name="Capa 1">
    <g>
      <path class="cls-1" d="M62.18,408.8c-2.56-.53-5.12-1.11-7.69-1.6-29.99-5.69-50.63-27.16-53.74-57.65-1.3-12.74-.66-25.77,.16-38.59,.99-15.5,3.83-30.82,8.55-45.68,6.19-19.5,14.98-37.54,31.13-50.98,14.21-11.82,30.93-16.94,49.17-16.77,4.09,.04,8.42,2.29,12.19,4.34,5.95,3.24,11.51,7.18,17.24,10.81,17.68,11.17,36.84,17.21,57.9,15.64,15.5-1.15,29.83-6.34,43.09-14.39,4.55-2.76,9.26-5.37,13.37-8.71,10.81-8.76,22.79-8.85,35.54-6.04,24.03,5.3,40.72,19.73,52.25,40.9,9.86,18.12,15.16,37.69,17.44,57.96,1.67,14.89,2.45,29.94,2.47,44.93,.02,31.99-22.24,58.12-53.75,64.16-2.84,.54-5.67,1.12-8.5,1.67H62.18Zm108.46-23.95c11.2,0,22.39,0,33.59,0,22.39-.02,44.8,.4,67.18-.18,29.94-.78,46.39-18.11,45.88-47.93-.2-11.8-.96-23.66-2.43-35.37-2.17-17.3-6.22-34.19-14.78-49.68-7.77-14.05-18.27-24.67-34.53-28.57-7.31-1.75-14.01-2.07-20.23,3.21-3.32,2.82-7.27,4.91-11.01,7.2-36.88,22.63-75.12,25.76-114.42,7.07-10.03-4.77-19.16-11.44-28.76-17.14-1.42-.84-3.17-1.69-4.74-1.63-13.89,.52-25.91,5.32-35.33,15.88-8.94,10.02-14.55,21.82-18.48,34.48-6.73,21.66-8.59,44.02-8.7,66.52-.09,17.84,6.32,32.49,23.2,40.91,8.41,4.19,17.54,5.19,26.79,5.2,32.26,.03,64.52,.01,96.78,.01Z"/>
      <path class="cls-1" d="M69.39,98.26C69.46,43.52,113.31-.06,168.26,0c54.64,.06,98.9,44.33,98.61,98.65-.29,54.59-44.65,98.68-99.02,98.43-54.82-.26-98.54-44.13-98.46-98.82Zm173.12,.16c.93-39.7-32.92-74.72-74.58-74.48-41.25,.24-74.25,33.12-74.52,74.35-.28,41.93,35.2,75,74.59,74.57,41.6-.44,74.53-32.87,74.51-74.45Z"/>
    </g>
  </g>
</svg>